<svg width="15" height="14" viewBox="0 0 15 14" fill="none" xmlns="http://www.w3.org/2000/svg">
<path fill-rule="evenodd" clip-rule="evenodd" d="M10.002 0.223347C10.4417 0.223347 10.8808 0.285376 11.2983 0.425464C13.8707 1.26181 14.7977 4.08448 14.0234 6.5517C13.5843 7.81249 12.8664 8.96316 11.9262 9.90335C10.5804 11.2067 9.10358 12.3636 7.51383 13.3602L7.33959 13.4655L7.15838 13.3533C5.56305 12.3636 4.07784 11.2067 2.71948 9.89638C1.78556 8.95619 1.067 7.81249 0.620945 6.5517C-0.166614 4.08448 0.760336 1.26181 3.36067 0.410828C3.56279 0.341133 3.77118 0.292346 3.98027 0.265165H4.0639C4.25974 0.23659 4.4542 0.223347 4.64934 0.223347H4.72601C5.16509 0.23659 5.59023 0.313255 6.00213 0.453342H6.04325C6.07113 0.466585 6.09204 0.481221 6.10598 0.494463C6.26 0.543947 6.40567 0.599703 6.54506 0.676368L6.8099 0.79485C6.8739 0.828981 6.94573 0.881133 7.00781 0.926206C7.04714 0.954763 7.08256 0.980478 7.10959 0.996967C7.12097 1.00368 7.13253 1.01043 7.14418 1.01723C7.20394 1.05211 7.26619 1.08845 7.31868 1.12869C8.093 0.536977 9.03319 0.216378 10.002 0.223347ZM11.8558 5.24142C12.1416 5.23375 12.3855 5.00446 12.4064 4.71104V4.6281C12.4273 3.65167 11.8356 2.76723 10.9358 2.42572C10.6501 2.32745 10.3365 2.48148 10.2319 2.7742C10.1343 3.06692 10.2877 3.38752 10.5804 3.49137C11.0271 3.65864 11.3261 4.09841 11.3261 4.58559V4.60719C11.3129 4.76679 11.361 4.92082 11.4586 5.0393C11.5561 5.15778 11.7025 5.22678 11.8558 5.24142Z" fill="#EB5757"/>
</svg>
