<svg xmlns="http://www.w3.org/2000/svg" width="115.403" height="128.195" viewBox="0 0 115.403 128.195">
  <g id="pikachu" transform="translate(-6.396 0.001)">
    <g id="Group_1" data-name="Group 1">
      <path id="Path_1" data-name="Path 1" d="M23.82,22.61a30.54,30.54,0,0,0,13.3,16.4A30.638,30.638,0,0,0,24.289,1.5,30.533,30.533,0,0,0,23.82,22.61Z" fill="#efe7d5"/>
    </g>
    <g id="Group_2" data-name="Group 2">
      <path id="Path_2" data-name="Path 2" d="M75.773,22.61a30.542,30.542,0,0,1-13.3,16.4A30.641,30.641,0,0,1,75.3,1.5,30.539,30.539,0,0,1,75.773,22.61Z" fill="#efe7d5"/>
    </g>
    <g id="Group_3" data-name="Group 3">
      <path id="Path_3" data-name="Path 3" d="M24.289,9.548a30.792,30.792,0,0,0-1.852,7.172,30.636,30.636,0,0,0,14.68,22.295,30.839,30.839,0,0,0,1.852-7.173,30.787,30.787,0,0,0-1.381-5.892A30.539,30.539,0,0,0,24.289,9.548Z" fill="#efe7d5"/>
    </g>
    <g id="Group_4" data-name="Group 4">
      <path id="Path_4" data-name="Path 4" d="M62,25.95a30.7,30.7,0,0,0-1.381,5.892,30.787,30.787,0,0,0,1.851,7.173,30.621,30.621,0,0,0,14.68-22.3,30.686,30.686,0,0,0-1.85-7.17A30.545,30.545,0,0,0,62,25.95Z" fill="#efe7d5"/>
    </g>
    <path id="Path_5" data-name="Path 5" d="M39.007,17.416A32.184,32.184,0,0,0,28.876,2.891c-.034-.028-.067-.057-.1-.084-.327-.264-.659-.52-1-.771-.075-.056-.149-.115-.225-.17-.316-.231-.638-.453-.962-.673-.092-.062-.181-.128-.273-.189Q25.7.595,25.059.211a1.5,1.5,0,0,0-2.165.74c-.2.514-.386,1.034-.56,1.556-.045.134-.085.269-.128.4-.13.408-.253.817-.366,1.229-.037.133-.073.266-.108.4q-.182.693-.332,1.391c-.016.073-.033.145-.049.218a32.1,32.1,0,0,0-.511,3.33c-.014.143-.025.287-.038.43-.034.4-.062.79-.081,1.186-.01.189-.019.378-.025.568-.012.367-.015.734-.014,1.1,0,.187,0,.373,0,.56q.015.765.066,1.53c0,.043,0,.086.006.129,0,.017.008.033.01.05A32.1,32.1,0,0,0,36.35,40.3a1.5,1.5,0,0,0,2.165-.741A32.2,32.2,0,0,0,39.007,17.416ZM36.338,36.735a29.187,29.187,0,0,1-11.1-14.61,28.7,28.7,0,0,1-1.377-6.4l8.62-4.538a29.009,29.009,0,0,1,3.688,7.2A29.2,29.2,0,0,1,36.338,36.735Z" fill="#efe7d5"/>
    <path id="Path_6" data-name="Path 6" d="M78.912,13.335c0-.2,0-.4,0-.6,0-.352,0-.7-.014-1.056-.007-.2-.016-.4-.026-.593q-.03-.582-.08-1.163c-.013-.148-.024-.3-.039-.445a32.315,32.315,0,0,0-.51-3.327c-.015-.071-.032-.142-.047-.213q-.151-.7-.333-1.4c-.035-.132-.07-.263-.106-.395-.114-.415-.238-.827-.369-1.238-.042-.132-.082-.265-.126-.4C77.087,1.985,76.9,1.465,76.7.95A1.5,1.5,0,0,0,74.536.21Q73.9.593,73.277,1c-.092.061-.181.126-.272.188-.325.22-.648.443-.964.674-.075.055-.147.112-.222.168-.338.252-.672.508-1,.773l-.1.084A32.124,32.124,0,0,0,61.08,39.561a1.5,1.5,0,0,0,2.165.741A32.1,32.1,0,0,0,78.831,15.038c0-.019.01-.036.011-.055,0-.047,0-.094.006-.14Q78.9,14.09,78.912,13.335Zm-15.659,23.4A28.942,28.942,0,0,1,67.1,11.179l8.644,4.551A28.98,28.98,0,0,1,63.253,36.735Z" fill="#efe7d5"/>
    <g id="Group_7" data-name="Group 7">
      <g id="Group_5" data-name="Group 5">
        <path id="Path_7" data-name="Path 7" d="M36.507,124.527a2.168,2.168,0,0,1-2.168,2.167H30.818a2.167,2.167,0,0,1-2.167-2.167v-4.333a2.166,2.166,0,0,1,2.167-2.166h3.521a2.167,2.167,0,0,1,2.168,2.166Z" fill="#efe7d5"/>
      </g>
      <g id="Group_6" data-name="Group 6">
        <path id="Path_8" data-name="Path 8" d="M70.942,124.527a2.167,2.167,0,0,1-2.167,2.167H65.254a2.168,2.168,0,0,1-2.168-2.167v-4.333a2.167,2.167,0,0,1,2.168-2.166h3.521a2.166,2.166,0,0,1,2.167,2.166v4.333Z" fill="#efe7d5"/>
      </g>
    </g>
    <g id="Group_10" data-name="Group 10">
      <g id="Group_8" data-name="Group 8">
        <path id="Path_9" data-name="Path 9" d="M34.339,128.194H30.818a3.671,3.671,0,0,1-3.667-3.667v-4.333a3.671,3.671,0,0,1,3.667-3.666h3.521a3.672,3.672,0,0,1,3.668,3.666v4.333A3.671,3.671,0,0,1,34.339,128.194Zm-3.521-8.666a.667.667,0,0,0-.667.666v4.333a.667.667,0,0,0,.667.667h3.521a.668.668,0,0,0,.668-.667v-4.333a.668.668,0,0,0-.668-.666Z" fill="#efe7d5"/>
      </g>
      <g id="Group_9" data-name="Group 9">
        <path id="Path_10" data-name="Path 10" d="M68.775,128.194H65.254a3.672,3.672,0,0,1-3.668-3.667v-4.333a3.672,3.672,0,0,1,3.668-3.666h3.521a3.671,3.671,0,0,1,3.667,3.666v4.333A3.671,3.671,0,0,1,68.775,128.194Zm-3.522-8.666a.668.668,0,0,0-.668.666v4.333a.668.668,0,0,0,.668.667h3.521a.667.667,0,0,0,.667-.667v-4.333a.667.667,0,0,0-.667-.666Z" fill="#efe7d5"/>
      </g>
    </g>
    <g id="Group_11" data-name="Group 11">
      <path id="Path_11" data-name="Path 11" d="M76.009,94.4V56.305A24.37,24.37,0,0,0,51.668,31.962H47.923a24.37,24.37,0,0,0-24.34,24.343V94.4a10.351,10.351,0,0,0-2.767,7.046v8.628a10.4,10.4,0,0,0,10.4,10.4H68.37a10.4,10.4,0,0,0,10.4-10.4v-8.628A10.34,10.34,0,0,0,76.009,94.4Z" fill="#efe7d5"/>
    </g>
    <g id="Group_12" data-name="Group 12">
      <path id="Path_12" data-name="Path 12" d="M76.009,94.4V62.727A24.37,24.37,0,0,0,51.668,38.385H47.923a24.369,24.369,0,0,0-24.34,24.342v38.095a10.353,10.353,0,0,0-2.767,7.046v2.205a10.4,10.4,0,0,0,10.4,10.4H68.37a10.4,10.4,0,0,0,10.4-10.4v-2.205a10.355,10.355,0,0,0-2.767-7.046V94.4Z" fill="#efe7d5"/>
    </g>
    <g id="Group_13" data-name="Group 13">
      <path id="Path_13" data-name="Path 13" d="M68.372,121.977H31.222a11.917,11.917,0,0,1-11.9-11.9v-8.628a11.847,11.847,0,0,1,2.767-7.61V56.305a25.871,25.871,0,0,1,25.84-25.843H51.67A25.871,25.871,0,0,1,77.511,56.305V93.834a11.849,11.849,0,0,1,2.767,7.61v8.628A11.921,11.921,0,0,1,68.372,121.977ZM47.923,33.463a22.867,22.867,0,0,0-22.84,22.843V94.4a1.505,1.505,0,0,1-.4,1.018,8.868,8.868,0,0,0-2.368,6.028v8.628a8.914,8.914,0,0,0,8.9,8.9h37.15a8.914,8.914,0,0,0,8.9-8.9v-8.628a8.866,8.866,0,0,0-2.368-6.028,1.5,1.5,0,0,1-.4-1.018v-38.1A22.867,22.867,0,0,0,51.668,33.462H47.923Z" fill="#efe7d5"/>
    </g>
    <g id="Group_14" data-name="Group 14">
      <path id="Path_14" data-name="Path 14" d="M120.3,71,92.869,59.331,66.464,79.421,78.745,84.65,48.7,110.53l58.469-19.869L93.414,84.807Z" fill="#efe7d5"/>
    </g>
    <g id="Group_15" data-name="Group 15">
      <path id="Path_15" data-name="Path 15" d="M86.343,88.3l26.885-13.8-25.841-11L66.464,79.421,78.745,84.65,48.7,110.53,98.674,93.55Z" fill="#efe7d5"/>
    </g>
    <g id="Group_16" data-name="Group 16">
      <path id="Path_16" data-name="Path 16" d="M48.7,112.031a1.5,1.5,0,0,1-.482-2.921L102.97,90.5,92.828,86.188a1.5,1.5,0,0,1-.1-2.715l24.037-12.342L93.083,61.053l-23.657,18,9.907,4.219a1.5,1.5,0,1,1-1.175,2.759L65.877,80.8a1.5,1.5,0,0,1-.32-2.573l26.4-20.09a1.5,1.5,0,0,1,1.5-.187l27.43,11.673a1.5,1.5,0,0,1,.1,2.715L96.946,84.68l10.811,4.6a1.5,1.5,0,0,1-.1,2.8l-58.47,19.869A1.5,1.5,0,0,1,48.7,112.031Z" fill="#efe7d5"/>
    </g>
    <g id="Group_17" data-name="Group 17">
      <path id="Path_17" data-name="Path 17" d="M41.756,62.66a1.5,1.5,0,0,1-1.061-2.56,14.009,14.009,0,0,1,19.791,0,1.5,1.5,0,0,1-2.121,2.121,11.007,11.007,0,0,0-15.549,0A1.5,1.5,0,0,1,41.756,62.66Z" fill="#efe7d5"/>
    </g>
    <g id="Group_18" data-name="Group 18">
      <path id="Path_18" data-name="Path 18" d="M59.426,74.656a1.5,1.5,0,0,1-1.061-.439,11.009,11.009,0,0,0-15.549,0A1.5,1.5,0,0,1,40.695,72.1a14.009,14.009,0,0,1,19.791,0,1.5,1.5,0,0,1-1.06,2.56Z" fill="#efe7d5"/>
    </g>
    <g id="Group_23" data-name="Group 23">
      <g id="Group_19" data-name="Group 19">
        <path id="Path_19" data-name="Path 19" d="M32.579,128.194H24.8a1.5,1.5,0,1,1,0-3h7.776a1.5,1.5,0,0,1,0,3Z" fill="#efe7d5"/>
      </g>
      <g id="Group_20" data-name="Group 20">
        <path id="Path_20" data-name="Path 20" d="M18.368,128.194h-.09a1.5,1.5,0,1,1,0-3,1.539,1.539,0,0,1,1.545,1.5A1.462,1.462,0,0,1,18.368,128.194Z" fill="#efe7d5"/>
      </g>
      <g id="Group_21" data-name="Group 21">
        <path id="Path_21" data-name="Path 21" d="M13.177,128.194h-.09a1.5,1.5,0,1,1,0-3,1.539,1.539,0,0,1,1.545,1.5A1.462,1.462,0,0,1,13.177,128.194Z" fill="#efe7d5"/>
      </g>
      <g id="Group_22" data-name="Group 22">
        <path id="Path_22" data-name="Path 22" d="M7.986,128.194H7.9a1.5,1.5,0,0,1,0-3,1.539,1.539,0,0,1,1.545,1.5A1.462,1.462,0,0,1,7.986,128.194Z" fill="#efe7d5"/>
      </g>
    </g>
  </g>
</svg>
